<svg xmlns="http://www.w3.org/2000/svg" viewBox="0 0 96 96" role="img" aria-label="Organizer logo">
  <defs>
    <linearGradient id="og-ring" x1="10" y1="10" x2="86" y2="86" gradientUnits="userSpaceOnUse">
      <stop offset="0" stop-color="#22d3ee" />
      <stop offset="1" stop-color="#34d399" />
    </linearGradient>
  </defs>
  <rect x="2" y="2" width="92" height="92" rx="24" fill="#0f172a" />
  <rect x="2" y="2" width="92" height="92" rx="24" fill="none" stroke="url(#og-ring)" stroke-width="3" />
  <path d="M48 22c14.36 0 26 11.64 26 26S62.36 74 48 74 22 62.36 22 48s11.64-26 26-26Z" fill="none" stroke="#1e293b" stroke-width="10" />
  <path d="M48 22c14.36 0 26 11.64 26 26S62.36 74 48 74 22 62.36 22 48s11.64-26 26-26Z" fill="none" stroke="url(#og-ring)" stroke-width="7" />
  <path d="m36 49 8 8 16-16" fill="none" stroke="#e2f6ff" stroke-width="6" stroke-linecap="round" stroke-linejoin="round" />
</svg>
